# xmcd
#
# Track frame offsets:
#	150
#	15226
#	27554
#	39215
#	60212
#	73495
#	86586
#	105463
#	120685
#	137322
#	162294
#	177196
#
# Disc length: 2540 seconds
#
# Revision: 0
# Processed by: cddbd v1.5.2PL0 Copyright (c) Steve Scherf et al.
# Submitted via: dBpowerAMP V4.0
#
DISCID=8e09ea0c
DTITLE=Bill Stuve - Flyin' Right
DYEAR=2005
DGENRE=Blues
TTITLE0=Honey Bee
TTITLE1=Jumpin'
TTITLE2=Lookout !
TTITLE3=Bad Luck and Trouble
TTITLE4=Leave That Boogie to Me
TTITLE5=Enuff Is Enuff
TTITLE6=All These Blues
TTITLE7=Jump Children
TTITLE8=Someday
TTITLE9=Too Late For Tears
TTITLE10=Conjured
TTITLE11=Spin and Win
EXTD=
EXTT0=
EXTT1=
EXTT2=
EXTT3=
EXTT4=
EXTT5=
EXTT6=
EXTT7=
EXTT8=
EXTT9=
EXTT10=
EXTT11=
PLAYORDER=
